<svg id="Layer_1" data-name="Layer 1" xmlns="http://www.w3.org/2000/svg" xmlns:xlink="http://www.w3.org/1999/xlink" viewBox="0 0 512 512"><defs><linearGradient id="linear-gradient" x1="256" y1="0.01" x2="256" y2="511.99" gradientUnits="userSpaceOnUse"><stop offset="0" stop-color="#e9ebf5"/><stop offset="0.76" stop-color="#b0c7e1"/><stop offset="1" stop-color="#7697c6"/></linearGradient><linearGradient id="linear-gradient-2" x1="255.99" y1="409.71" x2="255.99" y2="102.3" gradientUnits="userSpaceOnUse"><stop offset="0" stop-color="#000013"/><stop offset="1" stop-color="#005c92"/></linearGradient></defs><title>email</title><path d="M256,512c141,0,256-115,256-256S397,0,256,0,0,115,0,256,115,512,256,512Z" fill-rule="evenodd" fill="url(#linear-gradient)"/><path d="M367.36,334.81l34-.9q-15.09,32.9-47.69,52.13-37.32,22.12-91.84,23.57-52.7,1.4-91.57-15.41t-58.45-51.07Q92.28,308.85,91.18,268a171.83,171.83,0,0,1,19-84.24q20.25-39.27,56.66-59.69t83.86-21.66q40.26-1.07,72,13.76t49.07,43.24A124.55,124.55,0,0,1,390,222q1.09,40.75-23.13,74.3Q336.43,338.69,287.2,340c-8.84.24-15.53-1.11-20.08-4.1a22.47,22.47,0,0,1-9.31-13.34q-18.33,18.74-43,19.37-26.52.7-44.51-17.11c-12-11.91-18.26-27.95-18.81-48.25A119.11,119.11,0,0,1,170.8,207.5q24.61-38.41,64.51-39.49,28.48-.77,42.63,20.65l3.51-17.89,42.17-1.12L302.55,284.89q-1.92,10.95-1.87,14.13c.08,2.68.72,4.63,2,6a5.71,5.71,0,0,0,4.41,1.85c5.13-.14,11.64-3.37,19.61-9.8q16-12.55,25.49-33.27a95.09,95.09,0,0,0,8.9-42.65q-1-39.27-30.16-65t-80.13-24.35q-43.28,1.16-72.95,19.63a111.93,111.93,0,0,0-44.06,50.89,152.86,152.86,0,0,0-13.5,67.12q.9,33.71,18.65,60.91t48.85,39.1q31.1,11.86,70.71,10.83,38.21-1,65.44-12.38t43.39-33.09ZM192.87,273.73q.54,20.29,9,29.67c5.68,6.23,12.53,9.27,20.6,9.06a34.32,34.32,0,0,0,17-4.94,42.83,42.83,0,0,0,11.73-10.4c5.45-6.64,10.1-16.26,13.86-28.8s5.53-24.27,5.24-35c-.32-12.05-3.4-21.2-9.14-27.49a26.9,26.9,0,0,0-21.42-9.08c-9.16.24-17.58,4-25.14,11.25s-13.18,17.54-16.81,30.79S192.6,263.63,192.87,273.73Z" fill="#fff"/><path d="M377.1,334.81l34-.9Q396,366.81,363.45,386q-37.32,22.12-91.84,23.57Q218.92,411,180,394.19t-58.45-51.07Q102,308.85,100.92,268a171.84,171.84,0,0,1,19-84.24q20.24-39.27,56.66-59.69t83.86-21.66q40.26-1.07,72,13.76t49.07,43.24A124.63,124.63,0,0,1,399.7,222q1.08,40.75-23.14,74.3Q346.17,338.69,296.94,340c-8.84.24-15.53-1.11-20.09-4.1a22.48,22.48,0,0,1-9.31-13.34q-18.33,18.74-43,19.37-26.5.7-44.51-17.11c-12-11.91-18.26-27.95-18.8-48.25a119,119,0,0,1,19.29-69.06q24.61-38.41,64.51-39.49,28.48-.77,42.64,20.65l3.5-17.89,42.17-1.12L312.29,284.89c-1.28,7.3-1.91,12-1.86,14.13.07,2.68.73,4.63,2,6a5.71,5.71,0,0,0,4.41,1.85c5.13-.14,11.64-3.37,19.61-9.8q16-12.55,25.49-33.27a95,95,0,0,0,8.9-42.65q-1-39.27-30.16-65t-80.12-24.35q-43.28,1.16-73,19.63a111.92,111.92,0,0,0-44.06,50.89,152.81,152.81,0,0,0-13.5,67.12q.89,33.71,18.65,60.91t48.85,39.1q31.1,11.86,70.71,10.83,38.21-1,65.45-12.38t43.39-33.09Zm-174.5-61.08q.54,20.29,9,29.67c5.68,6.23,12.53,9.27,20.6,9.06a34.3,34.3,0,0,0,17-4.94A42.79,42.79,0,0,0,261,297.12c5.45-6.64,10.11-16.26,13.86-28.8s5.53-24.27,5.24-35c-.32-12.05-3.41-21.2-9.13-27.49a26.92,26.92,0,0,0-21.43-9.08c-9.16.24-17.58,4-25.14,11.25s-13.18,17.54-16.81,30.79S202.34,263.63,202.61,273.73Z" fill="url(#linear-gradient-2)"/></svg>